<svg id="visual" viewBox="0 0 900 100" width="900" height="100" xmlns="http://www.w3.org/2000/svg" xmlns:xlink="http://www.w3.org/1999/xlink" version="1.1"><rect x="0" y="0" width="900" height="100" fill="#28da89"></rect><path d="M0 70L56 70L56 81L113 81L113 90L169 90L169 48L225 48L225 88L281 88L281 72L338 72L338 58L394 58L394 36L450 36L450 46L506 46L506 44L563 44L563 66L619 66L619 91L675 91L675 75L731 75L731 65L788 65L788 63L844 63L844 81L900 81L900 61L900 101L900 101L844 101L844 101L788 101L788 101L731 101L731 101L675 101L675 101L619 101L619 101L563 101L563 101L506 101L506 101L450 101L450 101L394 101L394 101L338 101L338 101L281 101L281 101L225 101L225 101L169 101L169 101L113 101L113 101L56 101L56 101L0 101Z" fill="#9b00bd" stroke-linecap="square" stroke-linejoin="miter"></path></svg>