<svg id="visual" viewBox="0 0 900 300" width="900" height="300" xmlns="http://www.w3.org/2000/svg" xmlns:xlink="http://www.w3.org/1999/xlink" version="1.1"><path d="M0 82L6.5 78.5C13 75 26 68 39 71.5C52 75 65 89 78 89.5C91 90 104 77 117.2 75.5C130.3 74 143.7 84 156.8 82.5C170 81 183 68 196 69.5C209 71 222 87 235 89C248 91 261 79 274 79C287 79 300 91 313 93C326 95 339 87 352 78.5C365 70 378 61 391 59.5C404 58 417 64 430.2 64.5C443.3 65 456.7 60 469.8 54.5C483 49 496 43 509 42C522 41 535 45 548 50.5C561 56 574 63 587 64.5C600 66 613 62 626 58.5C639 55 652 52 665 59.5C678 67 691 85 704 89.5C717 94 730 85 743.2 80C756.3 75 769.7 74 782.8 70.5C796 67 809 61 822 56.5C835 52 848 49 861 50C874 51 887 56 893.5 58.5L900 61L900 0L893.5 0C887 0 874 0 861 0C848 0 835 0 822 0C809 0 796 0 782.8 0C769.7 0 756.3 0 743.2 0C730 0 717 0 704 0C691 0 678 0 665 0C652 0 639 0 626 0C613 0 600 0 587 0C574 0 561 0 548 0C535 0 522 0 509 0C496 0 483 0 469.8 0C456.7 0 443.3 0 430.2 0C417 0 404 0 391 0C378 0 365 0 352 0C339 0 326 0 313 0C300 0 287 0 274 0C261 0 248 0 235 0C222 0 209 0 196 0C183 0 170 0 156.8 0C143.7 0 130.3 0 117.2 0C104 0 91 0 78 0C65 0 52 0 39 0C26 0 13 0 6.5 0L0 0Z" fill="#28da89"></path><path d="M0 112L6.5 106C13 100 26 88 39 90C52 92 65 108 78 111.5C91 115 104 106 117.2 103.5C130.3 101 143.7 105 156.8 102.5C170 100 183 91 196 95.5C209 100 222 118 235 120.5C248 123 261 110 274 107C287 104 300 111 313 111.5C326 112 339 106 352 99C365 92 378 84 391 82C404 80 417 84 430.2 84C443.3 84 456.7 80 469.8 76.5C483 73 496 70 509 70C522 70 535 73 548 76C561 79 574 82 587 82C600 82 613 79 626 76C639 73 652 70 665 77C678 84 691 101 704 105.5C717 110 730 102 743.2 97C756.3 92 769.7 90 782.8 86.5C796 83 809 78 822 76.5C835 75 848 77 861 80.5C874 84 887 89 893.5 91.5L900 94L900 59L893.5 56.5C887 54 874 49 861 48C848 47 835 50 822 54.5C809 59 796 65 782.8 68.5C769.7 72 756.3 73 743.2 78C730 83 717 92 704 87.5C691 83 678 65 665 57.5C652 50 639 53 626 56.5C613 60 600 64 587 62.5C574 61 561 54 548 48.5C535 43 522 39 509 40C496 41 483 47 469.8 52.5C456.7 58 443.3 63 430.2 62.5C417 62 404 56 391 57.5C378 59 365 68 352 76.5C339 85 326 93 313 91C300 89 287 77 274 77C261 77 248 89 235 87C222 85 209 69 196 67.5C183 66 170 79 156.8 80.5C143.7 82 130.3 72 117.2 73.5C104 75 91 88 78 87.5C65 87 52 73 39 69.5C26 66 13 73 6.5 76.5L0 80Z" fill="#00d2c2"></path><path d="M0 163L6.5 156C13 149 26 135 39 135.5C52 136 65 151 78 155C91 159 104 152 117.2 152.5C130.3 153 143.7 161 156.8 158C170 155 183 141 196 140.5C209 140 222 153 235 152.5C248 152 261 138 274 136C287 134 300 144 313 148C326 152 339 150 352 146C365 142 378 136 391 134C404 132 417 134 430.2 133C443.3 132 456.7 128 469.8 122C483 116 496 108 509 104.5C522 101 535 102 548 107.5C561 113 574 123 587 123C600 123 613 113 626 111C639 109 652 115 665 124C678 133 691 145 704 145.5C717 146 730 135 743.2 130.5C756.3 126 769.7 128 782.8 124.5C796 121 809 112 822 109.5C835 107 848 111 861 116.5C874 122 887 129 893.5 132.5L900 136L900 92L893.5 89.5C887 87 874 82 861 78.5C848 75 835 73 822 74.5C809 76 796 81 782.8 84.5C769.7 88 756.3 90 743.2 95C730 100 717 108 704 103.5C691 99 678 82 665 75C652 68 639 71 626 74C613 77 600 80 587 80C574 80 561 77 548 74C535 71 522 68 509 68C496 68 483 71 469.8 74.5C456.7 78 443.3 82 430.2 82C417 82 404 78 391 80C378 82 365 90 352 97C339 104 326 110 313 109.5C300 109 287 102 274 105C261 108 248 121 235 118.5C222 116 209 98 196 93.5C183 89 170 98 156.8 100.5C143.7 103 130.3 99 117.2 101.5C104 104 91 113 78 109.5C65 106 52 90 39 88C26 86 13 98 6.5 104L0 110Z" fill="#00c5ef"></path><path d="M0 199L6.5 190C13 181 26 163 39 161C52 159 65 173 78 177C91 181 104 175 117.2 174.5C130.3 174 143.7 179 156.8 176.5C170 174 183 164 196 164.5C209 165 222 176 235 174.5C248 173 261 159 274 159.5C287 160 300 175 313 180.5C326 186 339 182 352 174.5C365 167 378 156 391 151.5C404 147 417 149 430.2 150.5C443.3 152 456.7 153 469.8 150C483 147 496 140 509 137C522 134 535 135 548 141C561 147 574 158 587 156C600 154 613 139 626 137.5C639 136 652 148 665 156.5C678 165 691 170 704 170C717 170 730 165 743.2 163.5C756.3 162 769.7 164 782.8 158.5C796 153 809 140 822 134.5C835 129 848 131 861 137.5C874 144 887 155 893.5 160.5L900 166L900 134L893.5 130.5C887 127 874 120 861 114.5C848 109 835 105 822 107.5C809 110 796 119 782.8 122.5C769.7 126 756.3 124 743.2 128.5C730 133 717 144 704 143.5C691 143 678 131 665 122C652 113 639 107 626 109C613 111 600 121 587 121C574 121 561 111 548 105.5C535 100 522 99 509 102.5C496 106 483 114 469.8 120C456.7 126 443.3 130 430.2 131C417 132 404 130 391 132C378 134 365 140 352 144C339 148 326 150 313 146C300 142 287 132 274 134C261 136 248 150 235 150.5C222 151 209 138 196 138.5C183 139 170 153 156.8 156C143.7 159 130.3 151 117.2 150.5C104 150 91 157 78 153C65 149 52 134 39 133.5C26 133 13 147 6.5 154L0 161Z" fill="#00b1ff"></path><path d="M0 211L6.5 203C13 195 26 179 39 178.5C52 178 65 193 78 198C91 203 104 198 117.2 198C130.3 198 143.7 203 156.8 200C170 197 183 186 196 185C209 184 222 193 235 192C248 191 261 180 274 180C287 180 300 191 313 196.5C326 202 339 202 352 196.5C365 191 378 180 391 176.5C404 173 417 177 430.2 177C443.3 177 456.7 173 469.8 169.5C483 166 496 163 509 161C522 159 535 158 548 162C561 166 574 175 587 173C600 171 613 158 626 158.5C639 159 652 173 665 182C678 191 691 195 704 195C717 195 730 191 743.2 188C756.3 185 769.7 183 782.8 177C796 171 809 161 822 157C835 153 848 155 861 160.5C874 166 887 175 893.5 179.5L900 184L900 164L893.5 158.5C887 153 874 142 861 135.5C848 129 835 127 822 132.5C809 138 796 151 782.8 156.5C769.7 162 756.3 160 743.2 161.5C730 163 717 168 704 168C691 168 678 163 665 154.5C652 146 639 134 626 135.5C613 137 600 152 587 154C574 156 561 145 548 139C535 133 522 132 509 135C496 138 483 145 469.8 148C456.7 151 443.3 150 430.2 148.5C417 147 404 145 391 149.5C378 154 365 165 352 172.5C339 180 326 184 313 178.5C300 173 287 158 274 157.5C261 157 248 171 235 172.5C222 174 209 163 196 162.5C183 162 170 172 156.8 174.5C143.7 177 130.3 172 117.2 172.5C104 173 91 179 78 175C65 171 52 157 39 159C26 161 13 179 6.5 188L0 197Z" fill="#0f98fe"></path><path d="M0 232L6.5 223C13 214 26 196 39 194C52 192 65 206 78 210.5C91 215 104 210 117.2 212.5C130.3 215 143.7 225 156.8 223.5C170 222 183 209 196 208C209 207 222 218 235 216.5C248 215 261 201 274 201C287 201 300 215 313 220.5C326 226 339 223 352 216.5C365 210 378 200 391 196C404 192 417 194 430.2 194C443.3 194 456.7 192 469.8 188.5C483 185 496 180 509 177C522 174 535 173 548 179C561 185 574 198 587 197C600 196 613 181 626 179C639 177 652 188 665 196.5C678 205 691 211 704 212.5C717 214 730 211 743.2 207.5C756.3 204 769.7 200 782.8 194.5C796 189 809 182 822 178.5C835 175 848 175 861 180C874 185 887 195 893.5 200L900 205L900 182L893.5 177.5C887 173 874 164 861 158.5C848 153 835 151 822 155C809 159 796 169 782.8 175C769.7 181 756.3 183 743.2 186C730 189 717 193 704 193C691 193 678 189 665 180C652 171 639 157 626 156.5C613 156 600 169 587 171C574 173 561 164 548 160C535 156 522 157 509 159C496 161 483 164 469.8 167.5C456.7 171 443.3 175 430.2 175C417 175 404 171 391 174.5C378 178 365 189 352 194.5C339 200 326 200 313 194.5C300 189 287 178 274 178C261 178 248 189 235 190C222 191 209 182 196 183C183 184 170 195 156.8 198C143.7 201 130.3 196 117.2 196C104 196 91 201 78 196C65 191 52 176 39 176.5C26 177 13 193 6.5 201L0 209Z" fill="#497af6"></path><path d="M0 271L6.5 268C13 265 26 259 39 259.5C52 260 65 267 78 267.5C91 268 104 262 117.2 263C130.3 264 143.7 272 156.8 276.5C170 281 183 282 196 281.5C209 281 222 279 235 276C248 273 261 269 274 269C287 269 300 273 313 273.5C326 274 339 271 352 270.5C365 270 378 272 391 271C404 270 417 266 430.2 266C443.3 266 456.7 270 469.8 270.5C483 271 496 268 509 266C522 264 535 263 548 263C561 263 574 264 587 263C600 262 613 259 626 259C639 259 652 262 665 265.5C678 269 691 273 704 274C717 275 730 273 743.2 272.5C756.3 272 769.7 273 782.8 270.5C796 268 809 262 822 262C835 262 848 268 861 269.5C874 271 887 268 893.5 266.5L900 265L900 203L893.5 198C887 193 874 183 861 178C848 173 835 173 822 176.5C809 180 796 187 782.8 192.5C769.7 198 756.3 202 743.2 205.5C730 209 717 212 704 210.5C691 209 678 203 665 194.5C652 186 639 175 626 177C613 179 600 194 587 195C574 196 561 183 548 177C535 171 522 172 509 175C496 178 483 183 469.8 186.5C456.7 190 443.3 192 430.2 192C417 192 404 190 391 194C378 198 365 208 352 214.5C339 221 326 224 313 218.5C300 213 287 199 274 199C261 199 248 213 235 214.5C222 216 209 205 196 206C183 207 170 220 156.8 221.5C143.7 223 130.3 213 117.2 210.5C104 208 91 213 78 208.5C65 204 52 190 39 192C26 194 13 212 6.5 221L0 230Z" fill="#7753e0"></path><path d="M0 301L6.5 301C13 301 26 301 39 301C52 301 65 301 78 301C91 301 104 301 117.2 301C130.3 301 143.7 301 156.8 301C170 301 183 301 196 301C209 301 222 301 235 301C248 301 261 301 274 301C287 301 300 301 313 301C326 301 339 301 352 301C365 301 378 301 391 301C404 301 417 301 430.2 301C443.3 301 456.7 301 469.8 301C483 301 496 301 509 301C522 301 535 301 548 301C561 301 574 301 587 301C600 301 613 301 626 301C639 301 652 301 665 301C678 301 691 301 704 301C717 301 730 301 743.2 301C756.3 301 769.7 301 782.8 301C796 301 809 301 822 301C835 301 848 301 861 301C874 301 887 301 893.5 301L900 301L900 263L893.5 264.5C887 266 874 269 861 267.5C848 266 835 260 822 260C809 260 796 266 782.8 268.5C769.7 271 756.3 270 743.2 270.5C730 271 717 273 704 272C691 271 678 267 665 263.5C652 260 639 257 626 257C613 257 600 260 587 261C574 262 561 261 548 261C535 261 522 262 509 264C496 266 483 269 469.8 268.5C456.7 268 443.3 264 430.2 264C417 264 404 268 391 269C378 270 365 268 352 268.5C339 269 326 272 313 271.5C300 271 287 267 274 267C261 267 248 271 235 274C222 277 209 279 196 279.5C183 280 170 279 156.8 274.5C143.7 270 130.3 262 117.2 261C104 260 91 266 78 265.5C65 265 52 258 39 257.5C26 257 13 263 6.5 266L0 269Z" fill="#9b00bd"></path></svg>