<svg id="visual" viewBox="0 0 900 100" width="900" height="100" xmlns="http://www.w3.org/2000/svg" xmlns:xlink="http://www.w3.org/1999/xlink" version="1.1"><rect x="0" y="0" width="900" height="100" fill="#ff6400"></rect><path d="M0 16L16.7 20.5C33.3 25 66.7 34 100 36.7C133.3 39.3 166.7 35.7 200 31.2C233.3 26.7 266.7 21.3 300 20.3C333.3 19.3 366.7 22.7 400 26.7C433.3 30.7 466.7 35.3 500 35.7C533.3 36 566.7 32 600 28.3C633.3 24.7 666.7 21.3 700 23.7C733.3 26 766.7 34 800 35.8C833.3 37.7 866.7 33.3 883.3 31.2L900 29L900 101L883.3 101C866.7 101 833.3 101 800 101C766.7 101 733.3 101 700 101C666.7 101 633.3 101 600 101C566.7 101 533.3 101 500 101C466.7 101 433.3 101 400 101C366.7 101 333.3 101 300 101C266.7 101 233.3 101 200 101C166.7 101 133.3 101 100 101C66.7 101 33.3 101 16.7 101L0 101Z" fill="#ff6400"></path><path d="M0 59L16.7 56.8C33.3 54.7 66.7 50.3 100 48.3C133.3 46.3 166.7 46.7 200 46.2C233.3 45.7 266.7 44.3 300 45C333.3 45.7 366.7 48.3 400 51.2C433.3 54 466.7 57 500 55.3C533.3 53.7 566.7 47.3 600 46.7C633.3 46 666.7 51 700 52.5C733.3 54 766.7 52 800 50.8C833.3 49.7 866.7 49.3 883.3 49.2L900 49L900 101L883.3 101C866.7 101 833.3 101 800 101C766.7 101 733.3 101 700 101C666.7 101 633.3 101 600 101C566.7 101 533.3 101 500 101C466.7 101 433.3 101 400 101C366.7 101 333.3 101 300 101C266.7 101 233.3 101 200 101C166.7 101 133.3 101 100 101C66.7 101 33.3 101 16.7 101L0 101Z" fill="#e94b04"></path><path d="M0 53L16.7 53.5C33.3 54 66.7 55 100 55.3C133.3 55.7 166.7 55.3 200 54.7C233.3 54 266.7 53 300 54.7C333.3 56.3 366.7 60.7 400 65.2C433.3 69.7 466.7 74.3 500 72.8C533.3 71.3 566.7 63.7 600 59.8C633.3 56 666.7 56 700 56.5C733.3 57 766.7 58 800 60.8C833.3 63.7 866.7 68.3 883.3 70.7L900 73L900 101L883.3 101C866.7 101 833.3 101 800 101C766.7 101 733.3 101 700 101C666.7 101 633.3 101 600 101C566.7 101 533.3 101 500 101C466.7 101 433.3 101 400 101C366.7 101 333.3 101 300 101C266.7 101 233.3 101 200 101C166.7 101 133.3 101 100 101C66.7 101 33.3 101 16.7 101L0 101Z" fill="#d33006"></path><path d="M0 95L16.7 90.7C33.3 86.3 66.7 77.7 100 73.3C133.3 69 166.7 69 200 73.2C233.3 77.3 266.7 85.7 300 89.3C333.3 93 366.7 92 400 91.2C433.3 90.3 466.7 89.7 500 88C533.3 86.3 566.7 83.7 600 81.3C633.3 79 666.7 77 700 75.7C733.3 74.3 766.7 73.7 800 75.5C833.3 77.3 866.7 81.7 883.3 83.8L900 86L900 101L883.3 101C866.7 101 833.3 101 800 101C766.7 101 733.3 101 700 101C666.7 101 633.3 101 600 101C566.7 101 533.3 101 500 101C466.7 101 433.3 101 400 101C366.7 101 333.3 101 300 101C266.7 101 233.3 101 200 101C166.7 101 133.3 101 100 101C66.7 101 33.3 101 16.7 101L0 101Z" fill="#c11f1f"></path></svg>